<svg xmlns="http://www.w3.org/2000/svg" xmlns:xlink="http://www.w3.org/1999/xlink"><symbol id="icon-arrow"><path d="M1 1l8 9.333L1 19"/></symbol><symbol id="icon-crown"><path d="M44.447 23H7.383a.841.841 0 01-.797-.56L1.046 6.551a.826.826 0 01.523-1.053.837.837 0 01.407-.033.84.84 0 01.72.492c.685 1.53 3.121 6.467 5.964 6.467l.107-.003c1.714-.075 4.396-2.02 7.434-10.858A.842.842 0 0116.998 1c.362 0 .682.227.799.563 1.037 3.014 4.513 10.812 8.124 10.812h.029c1.711-.02 4.343-1.91 7.161-10.793A.841.841 0 0133.916 1h.008a.84.84 0 01.8.598c.862 2.916 3.917 10.555 7.664 10.874 2.189.178 4.616-2.258 7.013-7.07A.848.848 0 0150.48 5c.41.168.618.62.475 1.034L45.244 22.44a.842.842 0 01-.797.56zM7.984 21.344h35.86l3.3-9.482c-1.594 1.66-3.214 2.4-4.903 2.26-4.15-.354-6.998-6.234-8.322-9.69-2.338 6.418-4.95 9.564-7.95 9.598l-.048.002c-4.194 0-7.432-6.322-8.899-9.81-2.502 6.494-5.188 9.722-8.18 9.854-1.535.058-2.87-.693-4.021-1.809l3.163 9.077z" fill="#A07B50" stroke="#1F1C1D" stroke-width=".8"/></symbol><symbol id="icon-face"><path d="M1.099 2.268v1.529H0v1.87h1.099v5.555h2.258V5.667h1.515s.142-.897.21-1.877H3.365V2.512c0-.191.246-.448.49-.448h1.23V.118H3.412C1.043.118 1.1 1.988 1.1 2.268z" fill="#fff"/></symbol><symbol id="icon-twitter"><path d="M13.376 4.826c.847-.071 1.422-.464 1.643-.996-.306.191-1.254.4-1.778.201a6.596 6.596 0 00-.083-.352c-.4-1.494-1.766-2.698-3.198-2.552.116-.048.233-.092.35-.132.158-.058 1.083-.211.937-.544-.123-.293-1.253.221-1.465.288.28-.107.745-.292.795-.621-.43.06-.853.267-1.18.569A.832.832 0 009.625.23c-1.148.748-1.818 2.254-2.36 3.716-.427-.421-.805-.753-1.143-.937-.95-.519-2.087-1.06-3.87-1.736-.055.602.291 1.401 1.29 1.933-.216-.03-.612.037-.929.114.13.689.55 1.257 1.69 1.531-.521.035-.79.156-1.034.416.237.48.816 1.043 1.857.928-1.158.508-.472 1.45.47 1.31A3.946 3.946 0 010 7.656c3.798 5.274 12.055 3.12 13.285-1.961.922.008 1.464-.326 1.8-.693-.531.091-1.301-.003-1.71-.177z" fill="#fff"/></symbol><symbol id="icon-vk"><path d="M12.884 7.409c-.035-.064-.251-.58-1.291-1.642-1.089-1.11-.943-.93.369-2.852.799-1.17 1.118-1.884 1.018-2.19-.095-.29-.683-.214-.683-.214l-1.953.013s-.145-.022-.253.049c-.104.07-.172.23-.172.23s-.31.906-.722 1.676c-.87 1.624-1.22 1.71-1.361 1.61-.331-.236-.248-.946-.248-1.45 0-1.574.217-2.23-.423-2.4-.213-.057-.37-.094-.913-.1C5.555.13 4.964.14 4.63.32c-.222.12-.394.387-.29.402.13.018.423.086.578.319.2.299.193.972.193.972s.116 1.854-.269 2.084c-.264.158-.625-.164-1.401-1.639-.398-.755-.698-1.59-.698-1.59S2.685.714 2.582.631C2.457.53 2.28.498 2.28.498L.424.51S.144.52.042.652c-.09.119-.007.364-.007.364s1.455 3.74 3.1 5.625c1.511 1.728 3.226 1.615 3.226 1.615h.777s.235-.029.354-.17c.11-.131.106-.376.106-.376s-.015-1.146.47-1.315c.476-.166 1.089 1.108 1.738 1.598.49.37.864.29.864.29l1.736-.027s.909-.062.478-.847z" fill="#fff"/></symbol></svg>